<svg xmlns="http://www.w3.org/2000/svg" width="20.555" height="20.523" viewBox="0 0 20.555 20.523">
  <g id="linkedin-icon" transform="translate(-126.3 -203)">
    <path id="XMLID_195_" d="M126.633,209.815H130.9v13.709h-4.263ZM128.772,203a2.472,2.472,0,1,1-2.472,2.472A2.475,2.475,0,0,1,128.772,203" fill="#fffdfd"/>
    <path id="XMLID_192_" d="M218.1,285.133h4.081v1.878h.055a4.477,4.477,0,0,1,4.033-2.211c4.311,0,5.111,2.837,5.111,6.529v7.512h-4.255v-6.664c0-1.593-.024-3.637-2.211-3.637-2.219,0-2.552,1.735-2.552,3.518v6.783h-4.255l-.008-13.709Z" transform="translate(-84.526 -75.318)" fill="#fffdfd"/>
  </g>
</svg>
