<svg xmlns="http://www.w3.org/2000/svg" width="124.639" height="74.944" viewBox="0 0 124.639 74.944">
  <g id="responsive-design" transform="translate(-145.193 -255.135)">
    <g id="Group_4" data-name="Group 4" transform="translate(145.193 255.135)">
      <path id="Path_26" data-name="Path 26" d="M206.3,349a4.438,4.438,0,0,1-1.742-2.9l-.59-3.773H185.148l-.592,3.773a4.431,4.431,0,0,1-1.739,2.9c-1.573,1.159-2.815,2.152-1.573,2.32,1.2.161,12.481.015,13.313,0,.835.015,12.117.161,13.314,0C209.112,351.157,207.869,350.166,206.3,349Z" transform="translate(-141.187 -278.745)" fill="#45a29e"/>
      <path id="Path_27" data-name="Path 27" d="M71.339,252.4a3.162,3.162,0,0,0-3.162-3.162H53.162A3.163,3.163,0,0,0,50,252.4V285.6a3.162,3.162,0,0,0,3.162,3.162H68.179A3.162,3.162,0,0,0,71.34,285.6V252.4Zm-12.238.4h3.162a.4.4,0,1,1,0,.79H59.1a.4.4,0,1,1,0-.79Zm1.449,34.089a1.581,1.581,0,1,1,1.581-1.581A1.581,1.581,0,0,1,60.55,286.889Zm8.814-4.452H51.976V255.96H69.364v26.477Z" transform="translate(-50 -213.815)" fill="#45a29e"/>
      <path id="Path_28" data-name="Path 28" d="M362.143,189.137h-32.52a4.433,4.433,0,0,0-4.434,4.433v46.544a4.435,4.435,0,0,0,4.434,4.436h32.52a4.434,4.434,0,0,0,4.434-4.436V193.57A4.433,4.433,0,0,0,362.143,189.137Zm-22.627,52.946a2.216,2.216,0,1,1,2.213-2.214A2.216,2.216,0,0,1,339.516,242.083Zm6.366,0a2.216,2.216,0,1,1,2.216-2.214A2.215,2.215,0,0,1,345.882,242.083Zm6.372,0a2.216,2.216,0,1,1,2.215-2.214A2.214,2.214,0,0,1,352.254,242.083Zm11.552-6.4H327.96V193.014h35.845V235.68Z" transform="translate(-241.938 -171.893)" fill="#45a29e"/>
      <path id="Path_29" data-name="Path 29" d="M161.667,145.64h5.451v-9.871a3.634,3.634,0,0,0-3.634-3.634H79.907a3.634,3.634,0,0,0-3.634,3.634v28.056h5.452V137.586h79.942v8.055Z" transform="translate(-68.325 -132.135)" fill="#45a29e"/>
      <path id="Path_30" data-name="Path 30" d="M132.9,294.287v10.9h54.433v-10.9Zm28.291,7.943a2.493,2.493,0,1,1,2.493-2.493A2.494,2.494,0,0,1,161.19,302.23Z" transform="translate(-107.82 -245.233)" fill="#45a29e"/>
    </g>
  </g>
</svg>
